# xmcd
# Track frame offsets:
# 150
# 17750
# 48554
# 62300
# 77347
# 87100
# 102771
# 112440
# 136216
# 151229
# 166598
# 182167
#
# Disc length: 3225 seconds
# Revision: 0
# Processed by: cddbd v1.5.2PL0 Copyright (c) Steve Scherf et al.
# Submitted via: VisiTrax 2.10.3.257 - For more info visit www.synapsa.com
#
DISCID=890c970c
DTITLE=Winehouse, Amy - Frank
DYEAR=2003
DGENRE=R&B
TTITLE0=[Intro] Stronger Than Me
TTITLE1=You Sent Me Flying/Cherry
TTITLE2=Know You Now
TTITLE3=Fuck Me Pumps
TTITLE4=I Heard Love Is Blind
TTITLE5=Moody's Mood For Love
TTITLE6=(There Is) No Greater Love
TTITLE7=In My Bed
TTITLE8=Take The Box
TTITLE9=October Song
TTITLE10=What It Is About Men?
TTITLE11=Amy Amy Amy [Outro] - Help Yourself [Hidden Track]
EXTD=Island Records B0008926-2
EXTT0=
EXTT1=
EXTT2=
EXTT3=
EXTT4=
EXTT5=
EXTT6=
EXTT7=
EXTT8=
EXTT9=
EXTT10=
EXTT11=
PLAYORDER=
